<?xml version="1.0" encoding="iso-8859-1"?>
<!-- Generator: Adobe Illustrator 12.0.0, SVG Export Plug-In . SVG Version: 6.00 Build 51448)  -->
<!DOCTYPE svg PUBLIC "-//W3C//DTD SVG 1.1//EN" "http://www.w3.org/Graphics/SVG/1.1/DTD/svg11.dtd" [
	<!ENTITY ns_svg "http://www.w3.org/2000/svg">
	<!ENTITY ns_xlink "http://www.w3.org/1999/xlink">
]>
<svg  version="1.1" xmlns="&ns_svg;" xmlns:xlink="&ns_xlink;" width="500" height="500" viewBox="0 0 500 500"
	 style="overflow:visible;enable-background:new 0 0 500 500;" xml:space="preserve">
<g id="Layer_1">
	<linearGradient id="XMLID_2_" gradientUnits="userSpaceOnUse" x1="441.5156" y1="89.2998" x2="58.4847" y2="410.701">
		<stop  offset="0" style="stop-color:#9564E2"/>
		<stop  offset="0.1111" style="stop-color:#9362DE"/>
		<stop  offset="0.2168" style="stop-color:#8B5BD3"/>
		<stop  offset="0.3203" style="stop-color:#7F50C0"/>
		<stop  offset="0.4224" style="stop-color:#6D40A5"/>
		<stop  offset="0.5227" style="stop-color:#572C82"/>
		<stop  offset="0.5337" style="stop-color:#542A7E"/>
	</linearGradient>
	<circle style="fill:url(#XMLID_2_);" cx="250" cy="250" r="250"/>
</g>
<g id="Layer_2_1_">
	<path style="fill:#FFFFFF;" d="M388.734,229.474l-33.968-5.989c-0.054-0.008-0.099-0.015-0.153-0.023
		c-2.587-10.212-6.618-19.832-11.878-28.646c0.115-0.153,0.23-0.315,0.338-0.491l18.366-29.675c1.85-2.987,1.404-6.864-1.091-9.359
		l-17.052-17.045c-2.604-2.604-6.704-2.972-9.714-0.86l-28.255,19.778c-0.046,0.031-0.093,0.078-0.139,0.116
		c-8.814-5.268-18.435-9.298-28.646-11.886c-0.022-0.191-0.061-0.383-0.107-0.576l-7.992-33.966
		c-0.807-3.417-3.863-5.851-7.387-5.851h-24.117c-3.678,0-6.833,2.649-7.471,6.273l-5.996,33.975
		c-0.008,0.045-0.016,0.099-0.023,0.145c-10.204,2.588-19.825,6.619-28.639,11.886c-0.046-0.038-0.092-0.085-0.138-0.116
		l-28.255-19.778c-3.017-2.111-7.11-1.743-9.712,0.86l-17.062,17.045c-2.487,2.495-2.932,6.373-1.082,9.359l18.366,29.675
		c0.107,0.176,0.222,0.337,0.337,0.491c-5.26,8.814-9.291,18.434-11.877,28.646c-0.054,0.008-0.101,0.015-0.154,0.023l-33.967,5.989
		c-3.624,0.638-6.266,3.792-6.266,7.478v24.115c0,3.525,2.419,6.581,5.844,7.388l33.967,7.993c0.192,0.046,0.384,0.084,0.577,0.1
		c2.587,10.211,6.618,19.839,11.877,28.646c-0.039,0.054-0.077,0.092-0.108,0.139l-19.778,28.255
		c-2.112,3.018-1.75,7.109,0.852,9.711l17.053,17.061c2.496,2.487,6.365,2.941,9.36,1.083l29.668-18.357
		c0.177-0.115,0.339-0.223,0.499-0.339c8.814,5.252,18.435,9.283,28.639,11.871c0.008,0.054,0.016,0.099,0.023,0.161l5.996,33.967
		c0.638,3.623,3.793,6.257,7.471,6.257h24.117c3.523,0,6.58-2.41,7.387-5.843l7.992-33.967c0.047-0.192,0.085-0.384,0.107-0.575
		c5.568-1.412,10.955-3.269,16.141-5.505c-11.187-12.172-22.069-24.014-28.656-31.181c-4.53,0.931-9.222,1.421-14.027,1.421
		c-38.298,0-69.348-31.049-69.348-69.347c0-38.297,31.05-69.339,69.348-69.339s69.349,31.042,69.349,69.339
		c0,6.582-0.937,12.941-2.65,18.975c6.519,7.094,17.458,18.997,28.773,31.311c3.93-7.44,7.026-15.392,9.142-23.742
		c0.191-0.016,0.385-0.054,0.576-0.1l33.96-7.993c3.433-0.807,5.851-3.862,5.851-7.388v-24.115
		C395,233.266,392.358,230.111,388.734,229.474z"/>
	<path style="fill:#FFFFFF;" d="M365.216,343.941l-70.221-76.411c6.851-16.953,3.868-37.075-9.329-51.435
		c-13.259-14.428-33.187-19.072-50.721-13.548c-1.75,0.552-2.335,2.734-1.094,4.085l22.345,24.315
		c3.366,3.662,3.127,9.36-0.536,12.725l-11.978,11.008c-3.662,3.366-9.36,3.126-12.725-0.537l-22.346-24.313
		c-1.242-1.352-3.467-0.953-4.163,0.745c-6.982,17.005-4.034,37.254,9.227,51.684c13.195,14.358,32.994,19.025,50.464,13.627
		l69.687,75.825L365.216,343.941z"/>
</g>
</svg>
